<?xml version="1.0" standalone="no"?>
<!DOCTYPE svg PUBLIC "-//W3C//DTD SVG 20010904//EN"
 "http://www.w3.org/TR/2001/REC-SVG-20010904/DTD/svg10.dtd">
<svg version="1.0" xmlns="http://www.w3.org/2000/svg"
 width="1280.000000pt" height="1280.000000pt" viewBox="0 0 1280.000000 1280.000000"
 preserveAspectRatio="xMidYMid meet">

<g transform="translate(0.000000,1280.000000) scale(0.100000,-0.100000)"
fill="#000000" stroke="none">
<path d="M3395 12542 c-155 -47 -294 -155 -403 -314 -72 -105 -132 -262 -132
-347 0 -25 -4 -50 -8 -56 -4 -6 -71 -10 -162 -11 -148 0 -159 -2 -249 -32
-212 -73 -330 -157 -482 -342 -175 -214 -242 -404 -256 -727 l-6 -131 -44 -49
c-50 -54 -161 -265 -189 -359 -24 -79 -24 -229 0 -308 23 -79 70 -171 113
-224 46 -56 154 -143 220 -176 l53 -26 -51 -83 c-29 -45 -59 -93 -69 -107 -9
-14 -48 -81 -87 -150 -338 -601 -555 -1249 -649 -1935 -59 -433 -59 -1087 0
-1520 40 -291 118 -645 198 -895 27 -84 25 -81 53 -68 29 13 31 34 9 86 -18
44 -97 331 -124 452 -58 263 -101 555 -120 815 -14 200 -12 590 5 800 70 880
360 1744 831 2471 l72 111 68 -14 c103 -22 221 -13 317 25 42 16 77 28 77 26
0 -2 -22 -35 -49 -72 -675 -931 -1008 -2052 -952 -3203 21 -434 84 -818 196
-1201 15 -53 35 -73 49 -50 2 4 -13 73 -35 152 -121 436 -180 875 -179 1348 0
347 30 646 96 972 130 642 369 1219 729 1760 176 264 223 323 367 458 l57 53
50 -21 c89 -39 248 -241 440 -561 44 -75 81 -139 81 -144 0 -7 -104 -178 -120
-198 -4 -4 -32 4 -64 19 -47 22 -65 25 -104 19 -26 -4 -59 -13 -74 -21 -16 -8
-109 -96 -207 -195 l-179 -180 -41 21 c-44 22 -99 27 -171 15 -79 -13 -146
-69 -192 -159 -74 -146 -84 -218 -63 -441 23 -235 41 -336 77 -428 31 -78 32
-80 20 -161 -7 -45 -24 -120 -38 -167 -73 -242 -84 -287 -92 -377 -10 -102 -9
-226 2 -316 7 -52 6 -55 -20 -68 -14 -7 -41 -33 -58 -57 -27 -37 -31 -51 -29
-98 1 -31 9 -66 18 -80 56 -86 318 -164 555 -166 153 -1 269 32 306 88 18 28
34 33 34 9 0 -8 6 -36 14 -62 8 -26 28 -96 46 -157 39 -132 129 -374 197 -525
160 -356 347 -644 562 -865 48 -49 90 -94 92 -100 2 -6 -61 -14 -166 -21 -155
-9 -172 -9 -190 7 -17 15 -47 18 -188 21 -167 3 -169 3 -188 -21 -10 -13 -19
-33 -19 -45 0 -20 -1 -20 -13 3 -6 13 -27 29 -45 35 -19 7 -30 15 -25 21 4 5
1 4 -9 -3 -23 -18 -322 -9 -403 12 -226 59 -489 -54 -590 -253 -155 -307 -72
-635 193 -758 62 -29 71 -37 61 -49 -14 -18 -29 -94 -18 -94 13 0 39 42 45 76
l6 31 111 6 c72 4 132 13 168 25 l57 20 10 -23 c17 -36 66 -44 227 -38 115 5
148 9 159 22 11 12 17 52 21 136 5 107 15 149 30 134 2 -3 6 -65 8 -139 3
-127 4 -134 28 -153 22 -18 34 -19 154 -12 72 4 153 11 180 17 28 5 122 14
210 19 177 10 204 17 206 51 1 17 5 12 13 -16 20 -63 30 -66 212 -66 214 0
203 -9 206 169 l3 135 70 12 c120 21 209 62 286 131 39 35 54 36 23 2 -11 -12
-21 -58 -30 -141 -21 -185 -20 -195 17 -217 53 -32 220 -83 289 -88 75 -6 184
15 253 47 62 29 138 99 172 155 29 50 28 50 145 32 l75 -12 5 -113 c6 -145 7
-146 140 -138 52 3 118 6 146 6 77 0 98 21 104 106 l5 68 52 -76 c29 -42 59
-78 68 -82 8 -3 79 6 157 20 137 24 144 25 172 8 26 -15 50 -16 240 -10 116 4
329 7 472 7 323 -1 302 -11 311 141 3 59 9 105 13 103 4 -3 22 -46 40 -96 19
-51 43 -103 55 -117 l21 -25 187 17 c205 18 212 20 222 44 5 13 34 455 35 535
0 14 9 17 49 17 l50 0 3 -288 c2 -239 6 -292 18 -307 14 -16 28 -17 171 -12
168 7 184 10 194 35 4 9 15 123 26 252 10 129 22 259 25 288 l5 52 69 0 69 0
-9 -27 c-4 -16 -40 -135 -79 -265 -39 -131 -71 -246 -71 -256 0 -43 30 -53
215 -71 128 -12 183 -14 198 -6 16 7 26 27 36 73 14 60 15 62 47 62 29 0 32
-3 43 -48 26 -101 30 -102 226 -77 113 15 117 15 142 -5 23 -18 40 -20 194
-20 199 0 199 0 199 110 0 36 3 82 7 104 6 38 6 38 49 -69 24 -59 49 -114 56
-122 10 -13 27 -14 98 -9 47 4 133 11 193 15 74 5 112 12 122 22 9 8 20 43 26
76 l11 62 32 -42 c18 -23 54 -59 81 -79 52 -40 169 -88 212 -88 16 0 37 -13
59 -37 l34 -37 0 27 c0 15 2 27 4 27 2 0 42 7 90 15 108 19 223 72 288 133
l48 45 0 243 c0 231 -1 245 -20 264 -11 11 -33 20 -51 20 -26 0 -30 3 -24 17
9 24 26 274 19 295 -8 26 -81 56 -182 73 -100 17 -196 10 -291 -22 -70 -24
-166 -89 -221 -151 l-50 -56 0 86 c0 121 5 118 -191 118 -96 0 -158 4 -154 9
3 5 1 13 -5 16 -6 4 -9 2 -8 -3 2 -5 -12 -21 -29 -36 -30 -26 -33 -33 -34 -89
-1 -34 -5 -75 -9 -92 l-8 -30 -1 28 c-1 28 -44 102 -104 179 -26 34 -33 38
-74 38 l-46 0 6 122 c6 126 24 248 36 248 12 -1 37 -25 44 -43 8 -21 36 -19
48 3 30 58 34 81 33 215 -4 318 -8 410 -20 430 -22 36 -33 128 -29 245 2 81
-2 149 -16 230 -14 87 -18 156 -16 286 2 169 2 171 29 207 32 41 116 84 182
93 152 21 262 -98 273 -297 4 -54 1 -93 -6 -107 -8 -15 -8 -23 0 -28 32 -20
67 -191 49 -240 -6 -14 -40 -57 -77 -95 -36 -38 -64 -71 -61 -74 2 -3 33 15
69 40 35 25 68 45 72 45 8 0 30 -48 62 -134 21 -58 58 -102 138 -164 l61 -46
170 -6 171 -6 89 -43 c120 -58 169 -111 185 -201 4 -20 13 -36 22 -38 33 -6
138 450 183 798 24 191 26 217 35 440 27 690 -75 1348 -306 1975 -136 368
-296 680 -529 1032 -677 1020 -1739 1769 -2924 2062 -1017 251 -2110 186
-3063 -183 -66 -25 -124 -46 -130 -46 -7 1 -29 24 -51 51 l-39 51 21 26 c45
57 94 144 116 207 13 36 27 70 32 74 13 12 324 113 474 155 299 82 637 141
970 167 309 25 817 13 1125 -27 663 -84 1342 -309 1935 -642 526 -296 1007
-683 1405 -1132 775 -876 1248 -2001 1335 -3175 14 -200 12 -611 -5 -815 -30
-370 -89 -690 -190 -1045 -25 -88 -48 -170 -51 -182 -4 -15 0 -25 17 -33 33
-18 39 -4 89 177 146 536 200 946 200 1508 0 552 -55 979 -191 1474 -504 1841
-1947 3276 -3799 3776 -400 108 -724 156 -1178 176 -713 31 -1379 -57 -1987
-261 -65 -22 -125 -40 -132 -40 -10 0 -13 22 -13 84 0 107 -36 251 -86 348
-28 54 -63 98 -131 165 -98 97 -150 133 -220 154 -30 8 -49 22 -66 48 -57 85
-149 157 -254 198 -91 35 -267 42 -358 15z m280 -88 c133 -34 195 -92 291
-273 38 -72 74 -131 80 -131 7 0 15 25 19 55 3 30 11 55 16 55 5 0 28 -12 51
-26 143 -91 253 -269 278 -454 24 -177 -23 -339 -140 -479 -65 -78 -100 -99
-286 -176 l-152 -63 -4 162 c-3 88 -9 172 -15 185 -8 21 -11 13 -22 -55 -44
-285 -91 -452 -176 -619 -88 -173 -138 -240 -304 -405 -134 -134 -166 -160
-231 -192 -102 -49 -152 -65 -255 -79 -100 -13 -208 -3 -339 31 -43 12 -81 18
-84 15 -13 -13 25 -61 73 -93 27 -18 75 -40 107 -49 32 -9 58 -20 58 -24 0
-20 -110 -166 -159 -210 -59 -55 -185 -120 -276 -144 -32 -8 -92 -15 -133 -15
-151 0 -275 53 -388 165 -57 58 -76 84 -103 150 -33 78 -33 81 -28 195 3 84
12 139 31 205 25 86 113 285 125 285 4 0 18 -20 33 -45 30 -48 39 -53 58 -30
9 11 9 26 1 64 -18 86 -24 260 -12 361 32 261 119 445 295 629 157 162 344
257 554 280 84 9 136 5 312 -23 127 -21 157 -21 170 3 14 27 15 25 -27 54 -27
18 -58 27 -105 32 -37 4 -70 10 -73 15 -10 16 38 178 77 256 73 148 223 298
354 355 109 47 230 59 329 33z m2988 -1079 c413 -21 875 -107 1272 -239 932
-310 1742 -880 2361 -1661 172 -217 386 -559 528 -842 511 -1021 653 -2196
400 -3313 -14 -63 -35 -146 -46 -184 -17 -59 -22 -67 -30 -50 -33 62 -144 140
-248 172 -19 6 -108 16 -198 21 -155 8 -165 10 -205 37 -70 49 -119 106 -156
184 -31 66 -36 88 -42 185 -4 61 -17 151 -28 200 -11 50 -21 108 -21 131 0
106 -43 233 -101 299 -50 57 -82 69 -179 69 -70 0 -95 -5 -140 -26 -63 -29
-117 -79 -136 -125 -17 -39 -20 -370 -4 -423 5 -19 10 -96 11 -170 0 -74 4
-160 9 -190 33 -228 41 -303 43 -437 l2 -153 -48 -41 c-83 -72 -111 -176 -105
-384 l3 -120 -119 -6 c-105 -5 -121 -8 -136 -27 -15 -18 -19 -59 -25 -297 -4
-152 -9 -274 -12 -271 -3 2 -40 126 -83 274 -42 148 -83 278 -89 290 -10 20
-20 22 -84 21 -145 -1 -348 -16 -359 -27 -5 -5 -21 -41 -33 -79 l-23 -68 -1
69 c-1 97 -11 106 -117 106 l-83 0 143 144 c259 262 525 628 684 941 99 196
211 518 242 695 6 36 18 88 25 115 18 67 62 395 70 519 3 54 5 184 4 290 0
105 0 203 0 218 2 38 -45 389 -74 558 -23 135 -23 146 -8 155 10 6 30 23 46
38 28 27 29 31 25 95 -4 52 -21 105 -71 232 -78 194 -101 271 -122 402 -18
112 -33 154 -70 188 -22 21 -36 25 -83 24 -31 -1 -68 -4 -82 -8 -23 -6 -29 0
-69 71 -76 134 -134 219 -250 363 -101 127 -277 314 -373 397 -111 96 -312
248 -368 281 -19 11 -78 45 -130 76 -231 139 -502 251 -790 327 -177 46 -231
56 -441 80 -476 54 -991 13 -1479 -116 -96 -26 -185 -49 -197 -52 -17 -4 -46
18 -140 105 -65 60 -143 136 -174 168 -57 61 -299 377 -299 391 0 18 413 161
625 218 359 95 701 147 1082 164 163 8 258 7 496 -4z m-2307 -402 c158 -221
430 -539 522 -614 17 -13 53 -42 81 -64 36 -29 50 -47 50 -65 1 -19 -1 -22 -9
-10 -17 27 -455 -132 -725 -265 -208 -103 -303 -160 -425 -258 -228 -182 -327
-292 -446 -489 -54 -90 -70 -124 -76 -171 -8 -56 -6 -61 17 -83 31 -28 35 -61
6 -42 -11 6 -56 87 -101 180 -45 93 -119 223 -163 291 -98 148 -235 291 -314
327 -29 14 -53 29 -53 35 0 5 11 28 24 49 24 40 24 40 124 57 130 21 225 59
332 130 215 144 394 359 530 640 38 79 63 146 71 190 7 38 17 73 23 77 6 5 55
21 110 36 65 17 140 49 220 91 66 36 122 65 123 65 1 0 36 -48 79 -107z m2197
-498 c187 -8 537 -64 657 -105 14 -4 59 -18 100 -30 87 -26 165 -54 235 -85
28 -13 68 -29 90 -36 22 -7 47 -18 55 -25 8 -6 47 -26 85 -44 79 -36 264 -142
311 -177 17 -13 34 -23 38 -23 11 0 140 -100 149 -116 4 -8 16 -14 25 -14 9 0
34 -18 55 -40 20 -22 39 -40 42 -40 20 0 334 -314 355 -356 18 -36 35 -54 50
-54 6 0 14 -10 19 -23 5 -12 39 -60 76 -106 36 -47 75 -102 86 -122 10 -21 23
-40 29 -44 5 -3 10 -20 10 -36 0 -17 4 -28 10 -24 5 3 17 -10 27 -29 9 -20 20
-36 24 -36 4 0 15 -14 23 -31 15 -31 15 -33 -19 -88 -41 -69 -57 -83 -115
-105 -98 -36 -317 -37 -560 -1 -198 29 -345 45 -420 45 -93 0 -306 -32 -397
-60 -150 -46 -408 -175 -628 -313 -32 -20 -87 -52 -140 -82 -266 -148 -269
-149 -368 -134 -40 6 -79 15 -87 19 -8 4 -73 18 -145 30 -71 12 -150 29 -175
36 -53 16 -307 59 -435 74 -226 25 -455 -2 -660 -80 -27 -10 -88 -33 -135 -50
-117 -43 -231 -91 -255 -107 -11 -7 -27 -13 -36 -13 -10 0 -19 -4 -21 -10 -1
-5 -15 -11 -30 -12 -16 -1 -28 -8 -28 -15 0 -7 -6 -13 -14 -13 -8 0 -41 -13
-74 -30 -34 -16 -64 -30 -67 -30 -4 0 -21 -6 -38 -14 -91 -41 -332 -88 -371
-73 -13 5 -15 16 -10 61 4 30 3 63 0 73 -7 17 -8 17 -22 -1 -8 -11 -14 -32
-14 -48 0 -40 -54 -123 -98 -149 -70 -41 -180 -53 -213 -23 -9 8 -20 14 -25
13 -37 -7 -121 56 -166 124 -18 27 -29 36 -32 26 -2 -7 -10 -30 -16 -51 -6
-20 -30 -57 -54 -82 -42 -46 -43 -46 -109 -46 -36 0 -69 5 -72 10 -6 10 -55
14 -55 5 0 -3 9 -19 21 -34 20 -27 20 -34 10 -117 -6 -49 -20 -107 -31 -129
-10 -22 -22 -52 -25 -67 -3 -15 -12 -33 -20 -42 -8 -8 -15 -19 -15 -25 0 -29
-18 -5 -35 47 -14 45 -18 92 -19 220 l-1 163 27 28 c16 16 33 44 40 62 6 18
29 59 51 92 44 66 77 147 77 187 0 17 13 39 35 60 19 19 35 39 35 46 0 6 11
31 24 55 13 24 32 75 41 113 14 58 15 76 4 113 -15 55 -29 65 -29 21 -1 -18
-7 -51 -15 -72 -8 -22 -12 -43 -9 -47 6 -10 -28 -71 -48 -87 -10 -7 -18 -18
-18 -24 0 -20 -149 -145 -190 -160 -17 -6 -106 5 -132 17 -10 4 -18 3 -18 -2
0 -10 79 -52 138 -73 39 -15 41 -37 8 -106 -29 -60 -75 -114 -97 -114 -9 0
-27 8 -40 19 -32 24 -116 34 -124 14 -4 -12 -9 -13 -19 -4 -25 21 -35 -12 -42
-130 -3 -63 -9 -125 -14 -139 -5 -14 -11 -36 -14 -50 -6 -31 -54 -90 -72 -90
-8 0 -14 -7 -14 -15 0 -14 4 -14 34 -1 19 8 52 26 73 40 35 24 39 25 51 9 11
-15 12 -15 12 -1 0 9 -4 19 -9 22 -11 7 -6 205 6 217 5 5 25 4 48 -2 22 -6 65
-8 100 -4 59 6 63 5 68 -16 3 -12 1 -31 -5 -42 -6 -12 -8 -48 -5 -87 3 -37 2
-71 -2 -76 -5 -5 -14 -38 -20 -74 -23 -122 -35 -160 -48 -160 -14 0 -48 66
-57 111 -6 27 -53 85 -62 76 -8 -7 16 -50 32 -60 7 -4 11 -14 8 -22 -4 -8 -1
-36 5 -62 6 -27 13 -120 16 -208 3 -88 10 -164 15 -169 5 -5 6 -36 3 -70 -3
-34 -1 -77 5 -97 6 -22 6 -42 0 -53 -5 -9 -11 -41 -13 -72 -3 -31 -10 -63 -16
-70 -6 -8 -9 -25 -7 -39 3 -16 -1 -30 -13 -41 -11 -10 -19 -26 -19 -37 0 -23
-92 -195 -126 -236 -13 -16 -24 -36 -24 -44 0 -9 -7 -20 -16 -25 -12 -7 -15
-17 -9 -41 6 -27 11 -31 40 -31 18 0 38 -7 45 -15 7 -9 29 -15 52 -15 31 0 41
4 45 20 6 24 16 25 33 5 17 -20 23 -19 35 7 16 35 35 34 35 -1 0 -22 -5 -31
-16 -31 -9 0 -33 -17 -54 -37 -59 -59 -121 -99 -173 -113 -71 -19 -255 -6
-368 25 -230 65 -287 128 -234 258 9 21 6 21 50 0 27 -13 38 -14 47 -5 7 7 8
12 2 12 -17 0 -16 309 1 398 9 42 19 86 24 97 4 11 18 63 30 115 13 52 27 105
33 117 6 11 7 26 3 32 -4 7 -1 19 6 27 19 24 34 112 32 204 -1 72 -6 99 -36
175 -25 63 -39 120 -47 190 -6 55 -18 158 -27 229 -19 159 -11 249 34 361 58
149 101 197 191 216 56 11 56 11 179 -35 l42 -16 99 103 c55 56 136 141 181
188 85 91 128 119 180 119 29 0 185 -72 197 -91 9 -16 22 -10 37 19 8 15 24
45 36 66 11 22 25 44 30 49 5 5 7 16 4 23 -3 8 1 14 11 14 9 0 16 5 16 11 0 8
12 10 35 6 23 -4 40 -1 49 8 7 8 17 11 20 7 14 -14 26 25 26 88 1 93 16 151
49 180 15 14 26 30 24 36 -2 6 9 24 24 41 16 17 46 52 68 79 53 63 144 162
174 188 13 12 42 40 64 64 22 23 44 42 49 42 9 0 31 19 91 76 83 82 473 294
697 379 300 115 341 128 354 109 10 -13 18 -15 42 -7 34 11 57 52 60 108 2 44
1 43 109 74 263 75 614 134 895 149 141 8 188 8 433 -3z m2712 -2105 c4 -6 10
-8 15 -5 5 3 12 1 15 -5 4 -6 15 -8 26 -5 24 8 24 -3 -1 -35 -26 -33 -25 -49
4 -83 13 -15 28 -40 34 -55 18 -48 50 -234 56 -329 4 -51 9 -98 11 -106 9 -22
10 -559 2 -564 -5 -3 -6 -17 -2 -31 4 -15 5 -76 4 -137 -1 -60 -2 -123 -1
-140 0 -16 1 -52 1 -80 2 -80 -6 -326 -12 -370 -3 -22 -15 -79 -26 -126 -12
-48 -21 -95 -21 -105 0 -11 -7 -38 -15 -61 -8 -22 -16 -53 -19 -68 -8 -43 -26
-96 -51 -150 -13 -27 -34 -86 -46 -130 -12 -44 -28 -84 -34 -90 -7 -5 -15 -27
-19 -47 -4 -24 -14 -39 -26 -43 -12 -4 -24 -22 -31 -48 -6 -23 -28 -65 -50
-93 -21 -28 -39 -57 -39 -65 0 -8 -26 -43 -58 -79 -55 -62 -85 -103 -107 -145
-6 -10 -29 -33 -52 -50 -23 -16 -46 -42 -51 -56 -6 -15 -24 -33 -41 -40 -17
-8 -31 -20 -31 -27 0 -6 -18 -25 -40 -40 -22 -15 -43 -38 -46 -50 -4 -13 -17
-34 -30 -47 -13 -13 -24 -31 -24 -40 0 -8 -6 -15 -13 -15 -20 0 -54 -41 -62
-72 -4 -15 -14 -30 -23 -33 -10 -3 -25 -17 -35 -32 -49 -77 -80 -112 -126
-136 -27 -15 -52 -36 -56 -46 -3 -10 -31 -29 -63 -44 -33 -14 -74 -43 -95 -66
-20 -23 -41 -41 -46 -41 -5 0 -16 -6 -23 -14 -11 -10 -73 -16 -251 -22 -206
-8 -239 -11 -254 -27 -14 -14 -19 -38 -22 -120 l-3 -102 -67 130 -66 130 -205
-2 c-135 -2 -195 1 -176 7 15 5 36 15 45 24 9 8 41 19 71 24 60 12 204 75 217
95 4 7 33 26 63 41 30 16 62 34 71 42 8 8 21 14 28 14 7 0 33 20 58 45 24 25
53 45 63 45 11 0 20 7 20 14 0 16 60 66 78 66 6 0 17 10 23 23 7 12 18 26 26
30 7 4 24 29 37 55 14 26 59 81 101 122 156 153 285 296 285 317 0 4 13 21 28
38 37 39 142 214 142 235 0 6 -14 10 -30 10 -24 0 -42 -13 -89 -62 -32 -35
-76 -85 -96 -113 -21 -27 -50 -63 -65 -80 -15 -16 -31 -38 -36 -47 -5 -9 -28
-38 -51 -65 -24 -26 -62 -70 -85 -98 -36 -41 -107 -109 -198 -189 -8 -7 -30
-21 -47 -30 -18 -9 -33 -20 -33 -24 0 -4 -12 -15 -28 -24 -15 -9 -61 -40 -101
-67 -41 -28 -78 -51 -83 -51 -4 0 -31 -14 -60 -31 -29 -18 -84 -40 -123 -50
-38 -10 -106 -31 -150 -47 -69 -26 -317 -77 -342 -71 -4 2 -35 -1 -68 -6 -108
-16 -328 -5 -505 24 -140 23 -209 43 -335 93 -27 11 -74 28 -103 37 -29 10
-58 23 -64 29 -7 7 -17 12 -24 12 -6 0 -15 7 -18 16 -5 13 -9 14 -20 4 -11 -8
-20 -9 -35 0 -25 13 -26 7 -5 -25 8 -13 29 -27 45 -30 17 -4 33 -13 36 -21 3
-8 13 -14 23 -14 11 0 22 -4 25 -10 3 -5 13 -10 22 -10 9 0 30 -11 47 -23 17
-13 60 -34 96 -46 88 -30 289 -81 322 -81 15 0 39 -5 54 -10 15 -6 73 -13 128
-15 56 -2 110 -6 121 -9 11 -2 26 -5 34 -5 11 -1 11 -4 0 -18 -8 -9 -9 -14 -3
-10 6 3 24 -1 40 -9 16 -9 30 -15 31 -15 16 3 65 -15 75 -27 11 -13 11 -14 -2
-7 -13 8 -13 7 -1 -8 13 -16 2 -17 -148 -17 -89 0 -228 5 -308 11 -80 6 -156
8 -169 5 -14 -4 -37 -29 -61 -68 l-38 -62 -6 43 c-3 23 -12 48 -20 56 -19 19
-323 37 -359 21 -33 -15 -37 -43 -48 -349 -5 -136 -12 -250 -16 -255 -12 -12
-70 -9 -81 5 -5 7 -27 13 -48 15 -35 2 -39 6 -61 53 -12 27 -37 65 -55 82 -30
31 -31 34 -17 56 16 24 42 292 31 326 -19 60 -295 104 -430 67 -77 -20 -153
-63 -206 -116 l-47 -48 -34 35 c-85 90 -208 134 -387 140 -118 3 -151 11 -151
36 0 14 -41 57 -54 57 -13 0 -56 41 -56 54 -1 10 -49 49 -111 89 -19 13 -30
30 -35 55 -4 20 -23 60 -43 87 -42 57 -81 133 -81 158 0 10 -11 22 -25 27 -14
5 -25 15 -26 22 -3 58 -29 118 -49 118 -14 0 -22 11 -30 41 -11 41 -29 79 -41
89 -4 3 -14 31 -23 62 -12 43 -23 61 -46 74 -17 11 -37 37 -49 64 -11 25 -29
54 -40 64 -12 11 -21 24 -21 31 0 6 -12 23 -27 37 -16 14 -35 34 -43 44 -24
29 -59 134 -73 218 -11 65 -11 78 1 88 11 9 13 27 8 77 -4 35 -11 70 -17 77
-11 13 -26 61 -35 109 -3 16 -9 35 -15 41 -5 7 -11 27 -13 46 -6 51 -17 88
-26 83 -5 -3 -6 5 -2 17 4 17 2 20 -11 15 -33 -13 -15 9 41 49 78 57 179 111
268 144 106 40 211 102 285 170 35 32 67 56 71 54 4 -3 5 1 2 9 -3 8 -1 18 5
22 6 3 11 1 11 -4 0 -12 40 -15 41 -3 0 4 2 15 4 25 2 9 -3 17 -11 17 -8 0
-14 4 -14 9 0 17 20 23 35 11 10 -9 15 -7 19 8 5 14 13 18 31 14 15 -2 27 1
30 9 4 10 20 13 55 11 32 -3 50 0 50 7 0 6 -5 11 -11 11 -16 0 0 20 35 41 l31
19 -36 0 c-29 0 -38 5 -42 21 -3 12 -10 18 -16 14 -17 -10 -13 -30 9 -50 25
-23 11 -44 -25 -37 -27 5 -33 17 -12 25 9 3 7 10 -6 23 -18 19 -18 18 -36 -5
-16 -21 -19 -21 -24 -6 -9 21 -1 35 19 35 8 0 14 9 14 20 0 10 19 36 41 57 48
44 82 95 94 138 4 17 7 104 6 194 l-2 164 48 -5 c62 -6 127 -47 152 -96 22
-44 78 -206 83 -242 2 -17 -2 -25 -12 -25 -10 0 -14 8 -12 28 2 15 -1 27 -7
27 -6 0 -11 -7 -11 -16 0 -9 -8 -23 -17 -30 -17 -12 -17 -14 5 -29 28 -21 28
-43 0 -54 -13 -5 -22 -12 -20 -17 2 -5 -4 -10 -12 -12 -10 -2 -16 3 -16 14 0
10 -3 15 -6 11 -12 -11 8 -47 26 -47 10 0 21 -4 25 -10 3 -5 12 -7 20 -3 25 9
65 -6 76 -30 8 -18 8 -15 4 14 -10 68 11 51 49 -41 12 -28 68 -108 101 -144
11 -12 50 -56 87 -97 89 -100 276 -235 413 -298 118 -55 133 -61 152 -61 10 0
23 -4 28 -8 16 -14 85 -30 175 -41 130 -16 382 12 543 60 37 11 73 18 80 17 7
-2 12 1 12 5 0 5 15 15 33 23 30 12 36 12 50 -2 15 -15 17 -14 27 13 5 17 15
28 22 26 19 -7 77 37 93 71 8 17 20 31 26 31 11 0 68 56 104 101 28 35 176
258 195 294 63 120 105 206 105 216 0 18 25 64 38 69 15 5 16 -10 2 -35 -8
-15 -6 -21 11 -30 20 -11 20 -12 2 -26 -17 -13 -16 -14 10 -8 22 5 27 3 27
-14 0 -14 7 -20 23 -21 42 -1 56 -4 51 -13 -3 -4 1 -8 10 -8 8 0 16 -5 18 -11
3 -9 24 -16 56 -18 6 -1 12 -8 12 -16 0 -11 7 -14 24 -9 20 5 25 2 28 -18 2
-18 8 -22 28 -19 14 1 27 6 30 11 9 14 139 -78 140 -99 0 -8 3 -11 6 -8 4 4
19 -2 33 -12 14 -10 34 -21 44 -24 9 -4 22 -18 27 -32 5 -14 17 -26 27 -26 10
-1 27 -2 38 -3 13 -1 20 -8 21 -24 2 -27 15 -42 21 -24 8 21 21 13 32 -18 6
-18 17 -30 28 -31 10 0 32 -2 48 -4 102 -12 132 -13 145 -5 13 8 12 10 -2 10
-10 0 -18 5 -18 10 0 15 22 12 63 -10 20 -11 37 -16 37 -10 0 5 -5 10 -12 10
-6 0 -9 2 -6 6 3 3 48 7 99 9 138 5 363 50 427 84 28 15 42 14 42 -3 0 -8 -9
-18 -21 -21 -14 -5 -18 -10 -11 -17 14 -14 -8 -67 -30 -74 -10 -3 -17 -10 -15
-16 1 -6 -32 -23 -75 -38 -42 -14 -82 -31 -90 -37 -7 -6 -24 -14 -38 -18 -26
-7 -198 -91 -215 -105 -5 -4 -39 -20 -75 -34 -36 -15 -74 -31 -85 -35 -27 -12
-176 -46 -307 -71 -59 -11 -197 -42 -305 -69 -144 -36 -249 -55 -388 -71 -104
-11 -210 -25 -235 -30 -69 -15 -259 -48 -313 -55 -46 -6 -962 -18 -1282 -16
-88 0 -189 5 -225 11 -92 15 -332 28 -350 19 -8 -5 -31 -10 -50 -14 -51 -8
-81 -56 -87 -139 -5 -62 -4 -66 18 -76 27 -12 49 -6 104 29 45 29 106 27 135
-4 14 -15 34 -25 52 -25 16 0 42 -7 58 -15 17 -9 31 -15 32 -15 2 1 23 -8 48
-19 25 -11 51 -21 58 -21 7 0 33 -11 58 -25 25 -14 51 -25 58 -25 7 0 40 -13
73 -29 33 -16 80 -35 104 -42 24 -7 46 -13 49 -14 3 -1 19 -5 35 -10 17 -4 50
-19 75 -33 169 -94 170 -94 170 -78 0 8 10 20 21 27 17 9 196 26 301 29 9 0
30 -11 45 -24 l28 -25 23 22 c24 22 89 35 197 36 108 2 88 17 -22 18 -133 1
-186 14 -215 54 l-23 30 -27 -33 c-26 -32 -28 -33 -118 -37 -110 -4 -140 2
-140 29 0 11 -6 21 -12 21 -7 1 -28 3 -46 5 -23 1 -43 12 -62 34 -16 18 -33
29 -39 25 -6 -3 -11 1 -11 9 0 8 -11 23 -24 33 -13 10 -26 29 -30 41 -4 12
-12 22 -17 22 -5 0 -8 28 -6 63 l2 62 295 1 c189 1 347 7 440 17 99 11 170 13
223 8 82 -9 106 -18 69 -28 -12 -3 -22 -10 -22 -15 0 -6 9 -8 19 -5 13 3 34
-9 65 -39 25 -24 50 -44 56 -44 6 0 9 27 8 71 l-3 72 110 19 c121 21 198 18
229 -10 10 -9 20 -16 22 -14 2 1 4 -1 3 -4 0 -10 113 -54 138 -54 76 0 104
-60 63 -137 -12 -24 -28 -43 -34 -43 -6 0 -33 -11 -61 -24 -27 -13 -70 -29
-95 -35 l-45 -10 50 4 c28 2 76 9 107 16 46 11 65 11 92 1 32 -12 36 -11 59
12 16 16 41 27 73 31 143 18 262 37 284 44 14 5 41 13 61 20 20 6 59 13 88 15
28 2 57 8 63 14 13 10 205 52 240 52 19 0 48 11 134 51 23 10 55 19 71 19 22
0 32 6 36 19 3 13 29 26 91 45 108 34 188 69 205 90 7 9 19 16 25 16 6 0 23
13 37 29 25 29 74 50 86 37 3 -3 -1 -14 -10 -24 -18 -20 -23 -62 -8 -62 5 0
13 10 17 22 19 60 168 271 309 438 30 36 55 68 55 72 0 4 22 30 49 58 58 61
101 72 178 47 83 -27 119 -31 126 -13 6 15 3 41 -8 76 -3 11 -19 30 -36 44
-16 14 -29 31 -29 39 0 26 -23 36 -62 28 -41 -10 -108 -48 -108 -62 0 -5 -6
-9 -14 -9 -7 0 -71 -29 -141 -65 -70 -36 -137 -65 -150 -65 -13 0 -35 -4 -49
-10 -21 -7 -26 -6 -26 5 0 8 8 15 17 15 13 0 14 3 5 12 -10 10 -17 10 -32 0
-24 -15 -30 -15 -30 -2 0 6 5 9 12 8 7 -2 12 11 14 32 3 50 3 50 14 50 11 0
234 219 283 278 82 97 217 327 242 412 4 14 11 30 15 35 19 24 51 171 65 295
18 160 24 190 35 190 13 0 60 49 68 71 13 34 116 150 139 156 19 4 21 8 12 19
-6 8 -10 14 -8 14 2 0 22 7 44 15 49 17 52 18 60 5z m-5430 -794 l70 -43 0
-109 c0 -60 4 -128 8 -150 10 -51 -7 -115 -38 -147 -46 -46 -71 -64 -95 -72
-48 -14 -86 -67 -149 -205 -29 -63 -119 -171 -173 -209 -29 -20 -57 -42 -61
-48 -4 -7 -19 -13 -32 -13 -13 0 -27 -4 -30 -10 -3 -5 -16 -10 -29 -10 -13 0
-44 -11 -70 -25 -25 -13 -70 -32 -100 -40 -30 -9 -57 -23 -60 -32 -4 -10 -14
-13 -28 -10 -13 4 -33 -3 -55 -20 -18 -14 -48 -33 -65 -42 -18 -9 -51 -39 -73
-68 -43 -55 -54 -59 -70 -25 -11 24 -31 31 -22 8 3 -8 -2 -21 -12 -30 -16 -14
-19 -15 -24 -3 -3 8 -1 19 5 25 8 8 7 13 -5 18 -19 7 -22 25 -8 52 32 60 96
311 87 340 -4 11 -2 61 4 111 10 87 12 94 45 122 19 17 35 36 35 43 0 7 16 27
35 46 19 19 35 39 35 45 0 7 12 34 26 61 15 27 28 65 30 84 22 218 34 282 60
311 8 9 14 23 12 30 -2 8 7 15 21 17 19 3 23 0 17 -14 -5 -14 -4 -15 8 -5 20
17 114 18 244 2 l114 -14 -6 -26 c-4 -14 -9 -52 -13 -84 -6 -56 -7 -59 -69
-109 -35 -28 -66 -58 -68 -67 -13 -42 -17 -91 -9 -91 5 0 22 -20 37 -45 16
-25 35 -50 42 -56 17 -14 39 -2 25 15 -16 19 -25 92 -12 100 6 4 11 22 11 40
0 17 5 37 12 44 16 16 45 15 55 -2 4 -8 25 -24 46 -36 48 -28 67 -16 44 27
-57 109 -60 150 -15 240 32 66 41 74 113 112 47 25 58 22 150 -33z m2824 -383
c0 -25 -1 -26 -9 -8 -12 27 -12 35 0 35 6 0 10 -12 9 -27z m26 -62 c3 -5 2
-12 -3 -15 -5 -3 -9 1 -9 9 0 17 3 19 12 6z m-2423 -39 c7 -25 -15 -55 -30
-40 -7 7 -7 17 0 34 13 29 24 31 30 6z m2593 -40 c-9 -9 -35 8 -35 24 0 16 2
16 20 -1 11 -10 18 -20 15 -23z m1198 -648 c4 -4 -2 -23 -13 -43 -11 -20 -29
-57 -39 -83 -11 -27 -25 -48 -30 -48 -6 0 -24 -15 -41 -34 -28 -31 -34 -33
-67 -26 -44 10 -53 23 -53 75 1 48 13 65 65 89 22 11 42 22 45 26 19 27 117
59 133 44z m-300 -139 c26 -11 24 -105 -3 -130 -12 -11 -18 -26 -15 -35 7 -21
-2 -28 -88 -75 -93 -50 -178 -76 -265 -82 -81 -6 -112 9 -112 54 0 12 -4 23
-10 23 -5 0 -7 -13 -4 -29 10 -46 -25 -73 -156 -120 -92 -34 -292 -55 -352
-38 -31 8 -57 51 -58 94 -2 182 -1 183 44 189 12 2 68 6 126 10 58 3 110 10
115 14 6 5 62 6 125 4 101 -3 117 -6 132 -25 22 -26 36 -18 43 29 13 80 15 83
35 77 12 -4 20 -2 20 4 0 6 15 11 33 12 17 0 75 9 127 19 92 18 224 20 263 5z
m-5028 -35 c3 -5 1 -10 -4 -10 -6 0 -11 5 -11 10 0 6 2 10 4 10 3 0 8 -4 11
-10z m2122 -265 c15 -59 17 -117 4 -96 -6 9 -19 12 -37 8 -27 -5 -84 18 -84
34 0 4 -10 10 -22 13 -22 6 -22 7 -5 20 18 14 17 14 -2 21 -22 7 -25 13 -13
31 12 18 34 23 91 21 l55 -2 13 -50z m251 -1708 c29 -8 58 -19 64 -25 8 -8 7
-47 -1 -133 -6 -68 -13 -125 -16 -127 -2 -2 -35 3 -74 12 -144 33 -257 9 -235
-49 8 -21 67 -35 145 -35 167 0 264 -122 239 -299 -23 -163 -135 -267 -319
-293 -70 -11 -88 -10 -162 9 -46 11 -110 32 -142 46 -50 23 -57 29 -53 49 3
13 10 70 16 128 7 58 13 106 14 108 2 1 23 -6 47 -16 98 -42 245 -56 287 -26
54 38 8 71 -114 83 -49 4 -103 15 -120 24 -42 21 -100 91 -115 135 l-12 35
-18 -47 c-9 -26 -30 -63 -45 -83 -55 -72 -184 -130 -317 -142 l-72 -6 -3 -152
-3 -153 -150 0 -150 0 3 454 c2 250 6 457 9 461 14 13 118 35 222 47 248 28
444 -53 503 -209 l17 -45 19 50 c37 99 132 177 253 209 60 15 207 10 283 -10z
m5832 -3 c28 -8 53 -21 56 -29 3 -7 2 -65 -3 -127 -7 -105 -9 -113 -28 -110
-106 14 -166 13 -216 -1 -62 -18 -123 -70 -145 -123 -18 -43 -18 -147 0 -182
33 -63 93 -96 157 -86 45 8 69 26 69 54 0 17 -9 20 -77 22 l-78 3 4 95 c2 52
4 96 6 98 1 2 88 6 192 9 l190 6 6 -144 c4 -79 7 -178 7 -220 0 -72 -1 -76
-32 -106 -67 -64 -233 -123 -347 -123 -91 0 -201 39 -279 98 -94 71 -153 209
-153 352 1 268 161 478 406 530 54 12 201 3 265 -16z m-5097 -3 c4 -4 2 -62
-4 -129 -6 -67 -9 -127 -7 -133 2 -7 44 50 93 126 50 76 93 143 96 148 6 8
318 -9 328 -19 2 -1 -65 -97 -148 -213 -83 -115 -151 -215 -151 -221 0 -7 57
-111 126 -232 69 -121 122 -223 117 -227 -8 -8 -245 -51 -276 -51 -10 0 -56
56 -109 131 -107 152 -105 152 -107 -29 -1 -81 -5 -114 -13 -116 -7 -3 -69 -7
-137 -10 l-124 -6 7 483 c4 265 10 490 13 500 5 18 14 18 146 12 78 -4 145
-10 150 -14z m-3377 -2 c25 -7 47 -17 50 -23 2 -6 -4 -69 -14 -139 l-17 -128
-80 -2 c-148 -4 -225 -67 -233 -191 -4 -56 -1 -65 23 -94 49 -58 130 -64 250
-16 32 13 60 22 61 21 1 -1 -4 -67 -12 -147 -7 -80 -13 -148 -14 -152 0 -4
-33 -18 -72 -30 -55 -17 -97 -23 -168 -23 -87 0 -101 3 -160 32 -186 91 -262
269 -214 501 51 251 225 400 467 401 49 1 109 -4 133 -10z m4964 -206 c57
-120 107 -222 112 -227 4 -6 8 44 8 110 0 65 3 162 6 215 l7 96 146 6 c80 3
149 2 152 -1 5 -6 -38 -872 -44 -878 -5 -5 -330 -33 -336 -30 -4 3 -45 104
-91 225 -46 121 -87 215 -91 208 -4 -6 -9 -75 -13 -152 -4 -77 -9 -175 -13
-217 l-6 -78 -143 0 c-78 0 -144 3 -146 8 -3 5 16 810 21 904 1 18 28 21 242
26 l85 2 104 -217z m2396 -10 l109 -226 6 139 c4 76 7 173 8 215 l1 76 148 6
c81 2 150 2 154 -2 6 -6 -37 -869 -44 -876 -8 -8 -333 -34 -339 -27 -3 4 -44
105 -90 226 -64 169 -85 213 -90 195 -3 -13 -9 -87 -13 -164 -3 -77 -9 -170
-12 -207 l-7 -68 -145 0 -145 0 7 323 c3 177 9 386 13 464 l6 142 76 4 c42 1
115 4 162 5 l86 2 109 -227z m-6511 205 c3 -4 25 -922 21 -925 -1 -2 -75 -6
-164 -9 l-161 -7 -3 149 -3 149 -70 0 -70 0 -6 -120 c-4 -66 -7 -130 -8 -142
-1 -23 -3 -23 -147 -23 l-147 0 6 168 c4 92 10 297 13 455 4 158 10 290 14
292 3 2 73 1 154 -2 l149 -6 -8 -234 -7 -233 71 0 71 0 0 252 0 251 146 -6
c80 -3 147 -7 149 -9z m3649 -65 c-3 -43 -7 -96 -10 -119 l-5 -41 -67 -7 c-37
-3 -95 -6 -129 -6 -68 0 -83 -12 -83 -64 l0 -26 95 0 95 0 0 -47 c0 -27 -3
-72 -6 -100 l-7 -53 -61 0 c-34 0 -78 -3 -98 -6 -37 -6 -38 -8 -38 -50 l0 -44
136 0 137 0 -7 -137 c-4 -76 -10 -141 -14 -144 -4 -4 -130 -9 -281 -13 l-274
-6 7 408 c4 224 9 435 12 470 l6 62 299 0 299 0 -6 -77z m1621 -60 c0 -72 -3
-135 -8 -139 -4 -4 -48 -10 -97 -12 -50 -3 -90 -7 -90 -11 -1 -34 -50 -604
-53 -607 -2 -2 -64 -5 -138 -6 l-134 -3 4 303 4 303 -97 -2 c-53 -1 -99 0
-101 3 -3 3 -2 71 1 151 l7 147 336 3 c185 1 343 2 351 2 13 0 15 -22 15 -132z
m519 120 c124 -421 245 -857 239 -863 -8 -7 -248 -40 -291 -40 -13 0 -24 6
-27 13 -2 6 -11 38 -20 70 l-16 57 -73 0 -73 0 -13 -62 c-7 -35 -16 -67 -21
-72 -8 -9 -301 13 -319 24 -9 6 233 844 249 862 3 4 80 11 171 16 91 5 170 10
177 11 6 0 14 -7 17 -16z m-5358 -50 c-3 -27 -20 -226 -37 -443 -17 -217 -32
-396 -33 -397 -1 -1 -64 -5 -139 -9 l-137 -7 0 441 c0 346 3 442 13 443 31 3
237 16 285 17 l54 2 -6 -47z m-789 -40 c-3 -10 -5 -4 -5 12 0 17 2 24 5 18 2
-7 2 -21 0 -30z m3345 -262 c-9 -190 -9 -191 -75 -191 -34 0 -40 4 -73 55 -19
31 -32 61 -28 68 22 37 177 248 180 244 2 -2 0 -81 -4 -176z m-3347 -79 c-14
-14 -17 16 -9 105 l9 98 3 -99 c1 -54 0 -101 -3 -104z m7888 131 c-7 -2 -21
-2 -30 0 -10 3 -4 5 12 5 17 0 24 -2 18 -5z m-8408 -42 c17 -1 17 -3 5 -11 -8
-5 -11 -10 -6 -10 4 0 -6 -15 -24 -32 -17 -18 -52 -59 -77 -90 -64 -81 -103
-76 -103 14 0 38 6 54 28 78 30 35 94 61 132 55 14 -2 34 -4 45 -4z m85 -58
c-1 -72 -11 -88 -71 -117 -94 -44 -98 -31 -18 57 72 79 89 90 89 60z"/>
<path d="M7365 9913 c-194 -16 -345 -38 -469 -69 -108 -27 -148 -52 -180 -113
-23 -43 -36 -181 -17 -181 8 0 10 -8 6 -20 -5 -14 -1 -22 12 -26 10 -3 32 -11
48 -19 53 -24 155 -35 360 -41 110 -3 270 -9 357 -14 162 -9 197 -6 211 17 4
7 17 13 28 13 31 0 75 53 95 113 23 70 23 207 -1 265 -9 23 -30 53 -46 66 -27
23 -36 25 -142 23 -61 0 -179 -7 -262 -14z"/>
<path d="M5190 9599 c-82 -14 -274 -56 -460 -101 -91 -22 -196 -46 -233 -53
-78 -15 -121 -47 -131 -97 -8 -43 13 -208 30 -235 8 -12 14 -27 14 -33 0 -13
14 -32 57 -75 27 -28 38 -32 75 -30 60 4 220 25 229 31 5 3 40 13 79 23 39 10
76 24 83 30 7 6 40 17 73 25 32 8 111 33 174 56 63 23 126 45 140 50 124 39
218 89 205 110 -2 3 17 26 42 50 44 44 45 45 39 95 -8 61 -49 123 -96 147 -28
14 -59 18 -150 17 -63 -1 -140 -5 -170 -10z"/>
<path d="M2567 8185 c-4 -26 -7 -63 -7 -82 0 -53 -53 -154 -110 -211 -58 -56
-54 -71 15 -52 51 14 125 88 125 124 0 12 4 26 10 32 20 20 10 187 -14 220
-11 15 -14 11 -19 -31z"/>
<path d="M2650 7974 c0 -8 5 -12 10 -9 6 4 8 11 5 16 -9 14 -15 11 -15 -7z"/>
<path d="M2610 7950 c0 -5 5 -10 10 -10 6 0 10 5 10 10 0 6 -4 10 -10 10 -5 0
-10 -4 -10 -10z"/>
<path d="M2452 6176 c1 -10 8 -17 13 -17 15 1 12 24 -3 29 -9 3 -13 -2 -10
-12z"/>
<path d="M4126 7105 c-3 -8 -1 -15 4 -15 6 0 10 7 10 15 0 8 -2 15 -4 15 -2 0
-6 -7 -10 -15z"/>
<path d="M4028 7069 c-18 -12 1 -28 32 -27 22 1 30 6 30 18 0 13 -7 17 -26 16
-14 0 -30 -4 -36 -7z"/>
<path d="M3934 7021 c3 -5 -3 -11 -14 -14 -11 -3 -20 -12 -20 -21 0 -22 26
-20 34 2 3 9 9 23 12 30 3 6 1 12 -6 12 -6 0 -9 -4 -6 -9z"/>
<path d="M4000 7013 c0 -23 15 -39 23 -26 3 5 -1 17 -9 28 -14 18 -14 18 -14
-2z"/>
<path d="M3960 6986 c0 -8 5 -18 10 -21 6 -3 10 3 10 14 0 12 -4 21 -10 21 -5
0 -10 -6 -10 -14z"/>
<path d="M3780 6800 c0 -5 7 -10 15 -10 8 0 15 5 15 10 0 6 -7 10 -15 10 -8 0
-15 -4 -15 -10z"/>
<path d="M4395 6800 c3 -5 8 -10 11 -10 2 0 4 5 4 10 0 6 -5 10 -11 10 -5 0
-7 -4 -4 -10z"/>
<path d="M7240 6760 c0 -5 5 -10 10 -10 6 0 10 5 10 10 0 6 -4 10 -10 10 -5 0
-10 -4 -10 -10z"/>
<path d="M5840 6354 c0 -9 7 -14 17 -12 25 5 28 28 4 28 -12 0 -21 -6 -21 -16z"/>
<path d="M8139 6115 c-11 -24 -24 -47 -29 -50 -4 -3 -11 -18 -15 -34 -3 -16
-13 -35 -21 -42 -16 -13 -19 -29 -4 -29 6 0 14 8 18 18 4 10 15 29 25 42 32
45 77 115 77 121 0 4 -7 10 -16 13 -11 4 -21 -6 -35 -39z"/>
<path d="M6083 5736 c-14 -24 -76 -54 -128 -61 -27 -4 -57 -11 -65 -16 -23
-13 49 -11 109 3 39 9 57 9 77 0 21 -10 29 -9 50 7 15 12 49 22 90 26 35 4 66
11 69 15 3 5 -22 6 -54 3 -67 -6 -103 0 -125 22 -13 13 -16 13 -23 1z"/>
<path d="M7850 5705 c0 -8 5 -15 10 -15 6 0 10 7 10 15 0 8 -4 15 -10 15 -5 0
-10 -7 -10 -15z"/>
<path d="M5190 5701 c0 -6 5 -13 10 -16 6 -3 10 1 10 9 0 9 -4 16 -10 16 -5 0
-10 -4 -10 -9z"/>
<path d="M5496 5415 c-3 -9 -6 -32 -6 -51 0 -30 5 -36 38 -50 38 -16 124 -35
130 -29 4 3 -39 35 -98 75 -12 8 -30 28 -40 43 -14 23 -19 25 -24 12z"/>
<path d="M5700 5260 c0 -5 5 -10 10 -10 6 0 10 5 10 10 0 6 -4 10 -10 10 -5 0
-10 -4 -10 -10z"/>
<path d="M6731 5181 c-9 -6 -10 -11 -2 -15 15 -10 53 3 46 15 -8 11 -26 11
-44 0z"/>
<path d="M6174 5156 c22 -18 46 -21 46 -6 0 6 -6 10 -14 10 -8 0 -23 3 -33 6
-16 5 -16 4 1 -10z"/>
<path d="M6300 4408 c0 -7 12 -18 26 -25 20 -9 26 -9 30 2 3 8 3 19 -1 25 -9
14 -55 13 -55 -2z"/>
<path d="M6425 4390 c4 -6 11 -8 16 -5 14 9 11 15 -7 15 -8 0 -12 -5 -9 -10z"/>
<path d="M4129 4003 c-13 -3 -17 -23 -22 -90 -4 -47 -4 -90 -1 -95 16 -26 99
0 131 42 56 72 -16 168 -108 143z m67 -88 c7 -18 -16 -49 -27 -38 -10 10 0 53
12 53 6 0 12 -7 15 -15z"/>
<path d="M8883 3780 c-11 -55 -18 -102 -15 -105 3 -3 23 -5 44 -5 33 0 38 3
38 23 -1 24 -35 175 -42 182 -2 2 -13 -40 -25 -95z"/>
<path d="M10175 5221 c-27 -10 -57 -22 -66 -26 -10 -3 -20 -2 -24 4 -15 25
-75 -38 -80 -84 -2 -11 -10 -58 -20 -105 -12 -57 -15 -103 -11 -142 8 -63 41
-148 58 -148 12 0 78 39 78 46 0 3 -4 14 -10 24 -7 12 -5 26 5 46 8 17 14 65
15 114 4 185 29 251 105 278 17 6 23 11 15 11 -8 0 -37 -8 -65 -18z"/>
<path d="M10500 4723 c-14 -3 -50 -12 -80 -20 -96 -26 -133 -32 -202 -33 -38
0 -68 -3 -68 -6 0 -17 44 -64 59 -64 10 0 39 12 65 26 39 22 63 27 149 31 57
3 105 11 109 17 10 14 10 56 1 55 -5 -1 -19 -4 -33 -6z"/>
<path d="M9700 4531 c0 -11 5 -23 10 -26 6 -3 10 3 10 14 0 11 -4 23 -10 26
-5 3 -10 -3 -10 -14z"/>
<path d="M9711 4433 c1 -16 4 -39 8 -53 7 -25 7 -25 14 6 7 35 -1 74 -14 74
-5 0 -9 -12 -8 -27z"/>
<path d="M11237 4415 c124 -155 354 -390 364 -373 8 13 -6 48 -20 48 -8 0 -55
47 -130 130 -57 63 -126 134 -131 134 -2 1 -27 22 -54 49 -58 56 -69 60 -29
12z"/>
<path d="M1550 4389 c-147 -134 -190 -175 -231 -225 -24 -30 -59 -64 -76 -75
-23 -14 -33 -28 -33 -45 0 -13 -6 -24 -13 -24 -6 0 -25 -13 -40 -30 -16 -16
-24 -30 -18 -30 6 0 19 9 28 20 10 11 21 20 24 20 10 0 359 352 359 362 0 4
14 23 31 43 42 48 34 44 -31 -16z"/>
<path d="M11520 4369 c0 -9 7 -22 15 -29 19 -16 19 0 0 26 -12 16 -14 16 -15
3z"/>
<path d="M1275 4350 c-10 -11 -21 -18 -24 -15 -4 2 -8 -8 -9 -21 -1 -15 2 -22
8 -19 6 3 10 13 10 21 0 8 6 14 14 14 8 0 17 7 20 16 10 25 1 27 -19 4z"/>
<path d="M11561 4324 c-1 -12 6 -25 15 -28 13 -5 14 -3 7 6 -6 7 -13 20 -16
28 -4 10 -6 8 -6 -6z"/>
<path d="M1140 4225 c0 -9 6 -12 15 -9 8 4 15 10 15 15 0 5 -7 9 -15 9 -8 0
-15 -7 -15 -15z"/>
<path d="M11650 4225 c7 -8 16 -12 21 -9 13 8 1 24 -18 24 -13 0 -13 -3 -3
-15z"/>
<path d="M11690 4195 c7 -9 15 -13 17 -11 7 7 -7 26 -19 26 -6 0 -6 -6 2 -15z"/>
<path d="M11220 4155 c14 -16 31 -36 38 -43 7 -8 21 -27 30 -41 27 -42 33 -49
126 -144 94 -97 102 -86 10 14 -30 32 -54 63 -54 68 0 5 -9 13 -20 16 -11 3
-20 12 -20 18 0 7 -30 42 -67 77 -37 36 -56 52 -43 35z"/>
<path d="M1060 4155 c-10 -12 -10 -15 4 -15 9 0 16 7 16 15 0 8 -2 15 -4 15
-2 0 -9 -7 -16 -15z"/>
<path d="M11740 4161 c0 -5 5 -13 10 -16 6 -3 10 -2 10 4 0 5 -4 13 -10 16 -5
3 -10 2 -10 -4z"/>
<path d="M1577 4137 c-140 -147 -268 -290 -263 -294 6 -6 169 157 206 207 18
25 47 60 64 78 16 17 27 32 23 32 -5 0 -18 -10 -30 -23z"/>
<path d="M11628 4003 c36 -36 56 -46 28 -15 -17 18 -33 32 -38 32 -4 0 0 -8
10 -17z"/>
<path d="M1080 3910 c0 -5 4 -10 9 -10 6 0 13 5 16 10 3 6 -1 10 -9 10 -9 0
-16 -4 -16 -10z"/>
<path d="M10738 3078 c-3 -20 -9 -23 -55 -24 -34 0 -59 -7 -71 -17 -16 -15
-20 -15 -34 -1 -23 23 -674 22 -698 -1 -11 -12 -17 -47 -21 -133 l-5 -117 -2
117 c-2 111 -3 118 -26 133 -35 23 -646 24 -681 1 -32 -21 -39 -66 -31 -184
l7 -97 -103 105 c-57 57 -125 124 -151 147 l-48 43 -391 0 -392 0 -140 -140
-140 -140 -141 140 -142 140 -393 0 -394 0 -137 -137 c-75 -76 -139 -145 -143
-153 -5 -13 -7 -13 -12 0 -4 8 -68 77 -143 153 l-137 137 -394 0 -393 0 -142
-141 -142 -140 -6 122 c-5 93 -11 127 -24 141 -15 17 -39 18 -345 18 -315 0
-329 -1 -348 -20 -19 -19 -20 -33 -20 -225 0 -192 1 -206 20 -225 13 -13 33
-20 60 -20 l40 0 0 -152 0 -153 -41 75 c-23 41 -111 216 -196 388 -85 172
-163 317 -173 322 -11 6 -127 10 -277 10 -221 0 -262 -2 -281 -16 -21 -15 -25
-15 -42 1 -17 15 -74 17 -656 17 l-638 1 -22 -27 -23 -26 -12 38 -11 39 -37
-13 c-26 -9 -106 -13 -278 -14 -186 0 -245 -3 -255 -13 -7 -8 -71 -131 -143
-275 -71 -144 -132 -262 -135 -262 -3 0 -66 121 -140 270 -80 162 -141 272
-151 275 -9 3 -135 6 -279 6 -230 1 -264 -1 -279 -15 -14 -14 -16 -45 -16
-225 0 -191 2 -211 19 -230 14 -15 31 -21 63 -21 l43 0 0 -440 0 -440 -24 0
c-31 0 -78 -18 -88 -33 -4 -7 -8 -105 -8 -219 0 -175 2 -209 16 -222 14 -14
56 -16 352 -14 l337 3 17 35 c10 19 26 38 35 42 16 6 16 7 1 7 -25 1 -29 25
-26 194 3 183 -2 194 -81 199 l-46 3 -2 165 -2 165 104 -210 c57 -115 113
-216 124 -224 40 -26 64 -8 111 90 25 50 73 144 107 208 l62 116 1 -151 0
-151 -41 -6 c-78 -10 -79 -13 -79 -248 0 -175 2 -210 16 -223 8 -9 21 -17 27
-17 7 -1 156 -3 332 -4 l320 -2 27 30 c18 19 28 24 28 14 0 -38 8 -39 672 -37
576 1 644 3 660 17 17 15 19 15 36 0 17 -15 56 -17 349 -17 302 0 331 1 345
18 9 10 18 48 22 96 3 44 13 90 21 102 12 19 12 23 0 28 -22 8 -22 211 0 220
11 4 21 -5 32 -29 16 -33 16 -37 0 -70 -9 -20 -17 -54 -17 -77 l0 -41 38 6
c20 2 43 6 51 8 13 4 37 -34 110 -172 49 -93 40 -89 229 -89 184 -1 180 0 407
-59 404 -105 879 -161 1350 -161 528 1 1009 66 1505 204 86 24 130 31 142 25
9 -5 191 -9 409 -9 l393 0 143 144 143 144 0 -128 c0 -110 2 -129 18 -143 17
-15 56 -17 349 -17 307 0 331 1 346 18 15 16 17 47 17 224 0 234 -1 238 -78
238 l-42 0 0 130 c0 117 2 130 18 130 12 0 34 -36 79 -130 60 -127 61 -131 46
-160 -12 -26 -14 -61 -8 -226 6 -149 11 -199 22 -210 12 -12 71 -14 345 -14
294 0 333 2 350 17 17 15 19 15 39 -3 20 -18 41 -19 343 -20 336 0 366 3 366
44 0 13 6 9 24 -13 l24 -30 634 3 c348 2 641 6 650 8 33 10 40 69 36 322 -3
242 -3 244 -27 263 -21 17 -41 19 -218 19 -113 0 -202 -4 -213 -10 -11 -6 -24
-29 -30 -51 -9 -31 -14 -39 -23 -30 -17 17 -31 13 -17 -4 7 -9 11 -18 8 -20
-10 -10 -136 -18 -182 -11 l-46 7 0 440 0 439 43 0 c76 0 76 -2 79 236 3 196
2 213 -16 233 -19 21 -26 21 -346 21 -342 0 -344 0 -368 -45 -10 -17 -11 -17
-12 -3 0 9 -10 24 -22 32 -19 13 -59 16 -238 16 -246 0 -287 5 -295 31 -9 26
-33 24 -37 -3z m599 -185 c-2 -16 -4 -5 -4 22 0 28 2 40 4 28 2 -13 2 -35 0
-50z m-1458 -308 c12 -18 6 -35 -50 -150 -41 -84 -70 -131 -81 -133 -16 -3
-18 8 -18 127 l0 131 38 0 c21 0 48 7 60 16 20 13 22 25 24 102 l1 87 7 -80
c3 -44 12 -89 19 -100z m-7799 21 c0 -28 30 -46 76 -46 l44 0 0 -91 c0 -87 -1
-93 -27 -117 l-28 -26 28 -10 27 -10 0 -168 c0 -92 -4 -168 -9 -168 -22 0 -41
52 -41 110 l0 60 -50 36 c-58 42 -70 71 -46 120 27 58 21 85 -28 127 -44 36
-45 37 -52 14 -4 -12 -9 -26 -9 -32 -6 -37 -9 -34 -15 15 -4 30 -5 72 -2 93 4
33 8 37 32 37 31 0 80 34 80 56 0 8 5 14 10 14 6 0 10 -6 10 -14z m9288 -33
c9 -7 33 -13 53 -13 35 0 39 -3 44 -32 3 -18 4 -217 3 -443 l-3 -410 -30 -2
c-16 0 -38 -2 -48 -2 -9 -1 -25 -10 -34 -21 -17 -19 -17 -19 -30 0 -11 15 -26
20 -64 20 l-49 0 0 445 0 445 42 0 c44 0 78 21 78 49 1 12 3 11 12 -4 6 -11
18 -26 26 -32z m-6329 -260 c-2 -159 -3 -414 -1 -568 l2 -279 143 -138 142
-137 394 -1 395 0 111 110 112 110 63 0 62 0 113 -110 113 -110 393 0 394 0
141 141 140 140 95 -96 c52 -53 95 -100 97 -104 6 -16 -387 -115 -618 -156
-645 -113 -1255 -113 -1901 0 -140 25 -439 94 -489 113 l-25 10 -3 623 c-1
343 0 641 4 662 5 35 7 37 45 37 27 0 45 6 56 20 10 11 19 20 22 20 2 0 2
-129 0 -287z m5581 262 c8 -9 29 -15 56 -15 l43 0 0 -162 0 -163 -47 -42 c-46
-41 -46 -42 -44 -98 2 -53 0 -59 -32 -88 -19 -18 -46 -41 -60 -52 -18 -14 -31
-39 -42 -80 -8 -33 -23 -68 -32 -78 -13 -15 -86 -57 -99 -57 -8 0 -183 362
-183 379 0 15 161 347 193 399 6 8 21 -5 51 -45 60 -81 108 -123 147 -132 77
-17 80 18 5 54 -66 31 -176 143 -154 156 7 5 40 9 74 9 37 0 68 6 80 15 24 18
29 18 44 0z m-7109 -15 l39 0 0 -445 0 -444 -27 1 c-16 1 -43 -2 -60 -6 l-33
-8 0 56 c0 85 -4 86 -246 86 -229 0 -235 -2 -238 -80 l-1 -40 -130 -3 -130 -2
4 125 c1 69 4 126 6 128 2 2 105 4 229 6 188 2 229 5 242 17 22 23 25 432 3
455 -13 12 -54 15 -247 15 l-232 0 0 70 0 69 130 0 130 0 0 -50 c0 -39 4 -52
20 -60 11 -6 105 -11 224 -13 236 -2 236 -3 244 83 4 39 8 50 19 46 8 -3 32
-6 54 -6z m2252 -7 c2 -5 2 -63 -1 -130 l-4 -123 -29 0 c-18 0 -35 -9 -48 -26
-20 -25 -21 -40 -21 -225 0 -250 -7 -239 145 -239 103 0 105 0 105 -23 0 -14
-19 -41 -49 -71 l-50 -49 -98 7 -98 7 -42 41 -43 42 0 353 0 353 41 45 42 45
73 0 c40 0 75 -3 77 -7z m1465 -36 c40 -41 42 -46 42 -103 0 -89 10 -98 117
-105 64 -4 33 -6 -112 -7 -163 -2 -205 -5 -223 -18 -22 -15 -22 -19 -22 -226
0 -262 -8 -248 137 -248 101 0 103 -1 103 -23 0 -14 -17 -39 -42 -64 l-43 -42
-100 -7 -100 -6 -47 50 -48 51 0 352 0 352 44 43 43 44 105 0 104 0 42 -43z
m1349 1 l41 -43 2 -155 c4 -275 5 -273 -33 -290 -24 -12 -34 -25 -44 -59 -16
-55 -28 -70 -80 -93 -43 -19 -83 -60 -83 -85 0 -23 -47 -63 -74 -63 -55 0 -57
17 -61 392 l-4 343 47 48 46 47 101 0 101 0 41 -42z m663 -408 l0 -438 -47 -4
c-27 -3 -57 -8 -67 -13 -19 -8 -19 -4 -13 151 4 87 7 280 7 427 l0 268 23 -7
c12 -4 28 -9 36 -12 11 -4 12 2 7 31 -6 32 -4 36 16 39 13 2 26 2 31 0 4 -2 7
-200 7 -442z m-3361 394 c29 -24 31 -31 31 -90 0 -104 -1 -104 245 -104 192 0
206 1 225 20 l20 20 0 -47 0 -47 -20 22 c-20 22 -27 22 -273 22 -139 0 -256 4
-262 8 -12 8 -16 222 -4 222 4 0 21 -12 38 -26z m1871 -200 c0 -8 -5 -12 -10
-9 -6 4 -8 11 -5 16 9 14 15 11 15 -7z m-92 -1 c-27 -2 -69 -2 -95 0 -27 2 -5
3 47 3 52 0 74 -1 48 -3z m-5642 -108 c8 -20 -20 -150 -44 -205 l-19 -45 -8
77 c-8 85 0 169 18 180 20 13 47 9 53 -7z m8704 -241 c0 -13 -4 -24 -9 -24
-10 0 -21 47 -13 54 10 11 22 -6 22 -30z m-8642 -15 c1 -13 -13 -50 -33 -84
-19 -33 -47 -85 -62 -115 -28 -55 -28 -55 -34 -25 -9 41 -10 116 -3 154 5 24
20 41 58 67 57 38 70 39 74 3z m8588 -130 c42 -25 54 -47 54 -93 0 -35 -1 -36
-40 -36 -35 0 -42 4 -51 28 -22 57 -24 122 -3 122 4 0 22 -9 40 -21z m-8501
-32 c7 -28 -21 -97 -39 -97 -8 0 -23 -11 -33 -24 l-19 -23 -28 23 c-15 13 -34
24 -42 24 -22 0 -10 14 57 70 66 55 95 63 104 27z m6385 -72 c-7 -9 -15 -13
-19 -10 -3 3 1 10 9 15 21 14 24 12 10 -5z m-2140 -245 c0 -5 -4 -10 -10 -10
-5 0 -10 5 -10 10 0 6 5 10 10 10 6 0 10 -4 10 -10z"/>
<path d="M5007 2037 c-4 -10 -7 -31 -6 -45 l0 -27 10 25 c5 13 8 33 7 45 -3
19 -4 19 -11 2z"/>
<path d="M4962 1848 c-13 -50 -21 -93 -19 -95 4 -3 39 107 50 154 3 13 2 25
-2 27 -4 3 -17 -36 -29 -86z"/>
<path d="M8480 2038 c6 -7 10 -26 11 -42 0 -30 0 -31 10 -7 8 20 6 28 -11 43
-11 10 -15 13 -10 6z"/>
<path d="M8270 1913 c0 -12 10 -43 22 -68 17 -35 27 -45 43 -43 33 5 32 51 -2
73 -15 10 -36 27 -45 39 l-18 21 0 -22z"/>
<path d="M265 2080 c-9 -14 21 -60 40 -60 8 0 21 14 30 30 14 28 14 30 -2 30
-10 0 -28 3 -39 6 -12 3 -25 1 -29 -6z"/>
<path d="M12453 2073 c-22 -4 -22 -6 -8 -34 18 -33 40 -38 55 -10 23 45 12 55
-47 44z"/>
<path d="M405 1850 c3 -5 8 -10 11 -10 2 0 4 5 4 10 0 6 -5 10 -11 10 -5 0 -7
-4 -4 -10z"/>
<path d="M12355 1840 c3 -5 8 -10 11 -10 2 0 4 5 4 10 0 6 -5 10 -11 10 -5 0
-7 -4 -4 -10z"/>
</g>
</svg>
